<?xml version="1.0" encoding="utf-8"?>
<!-- Generator: Adobe Illustrator 22.0.1, SVG Export Plug-In . SVG Version: 6.00 Build 0)  -->
<svg version="1.1" id="Layer_1" xmlns:serif="http://www.serif.com/"
	 xmlns="http://www.w3.org/2000/svg" xmlns:xlink="http://www.w3.org/1999/xlink" x="0px" y="0px" viewBox="0 0 610.3 612"
	 style="enable-background:new 0 0 610.3 612;" xml:space="preserve">
<style type="text/css">
	.st0{fill:#FFFFFF;}
</style>
<g transform="matrix(1.01619,0,0,1.01619,44,43.8384)">
	<path class="st0" d="M258.2-43.1c-81.8,0-92,0.3-124.2,1.8c-32.1,1.5-53.9,6.6-73.1,14C41.2-19.6,24.4-9.3,7.6,7.4
		s-27,33.5-34.7,53.3c-7.4,19.2-12.5,41-14,73.1c-1.5,32.1-1.8,42.4-1.8,124.2c0,81.8,0.3,92,1.8,124.2c1.5,32.1,6.6,53.9,14,73.1
		c7.7,19.8,18,36.6,34.7,53.3c16.7,16.7,33.5,27,53.3,34.7c19.2,7.4,41,12.5,73.1,14c32.1,1.5,42.4,1.8,124.2,1.8
		c81.8,0,92-0.3,124.2-1.8c32.1-1.5,53.9-6.6,73.1-14c19.8-7.7,36.6-18,53.3-34.7c16.7-16.7,27-33.5,34.7-53.3
		c7.4-19.2,12.5-41,14-73.1c1.5-32.1,1.8-42.4,1.8-124.2c0-81.8-0.3-92-1.8-124.2c-1.5-32.1-6.6-53.9-14-73.1
		c-7.7-19.8-18-36.6-34.7-53.3c-16.7-16.7-33.5-27-53.3-34.7c-19.2-7.4-41-12.5-73.1-14C350.3-42.8,340-43.1,258.2-43.1z
		 M258.2,11.1c80.4,0,89.9,0.3,121.7,1.8c29.4,1.3,45.3,6.2,55.9,10.4c14.1,5.5,24.1,12,34.6,22.5C481,56.3,487.5,66.3,493,80.4
		c4.1,10.6,9,26.6,10.4,55.9c1.4,31.8,1.8,41.3,1.8,121.7c0,80.4-0.3,89.9-1.8,121.7C502,409,497.1,425,493,435.6
		c-5.5,14.1-12,24.1-22.5,34.6c-10.5,10.5-20.6,17.1-34.6,22.5c-10.6,4.1-26.6,9-55.9,10.4c-31.7,1.4-41.3,1.8-121.7,1.8
		c-80.4,0-89.9-0.3-121.7-1.8c-29.4-1.3-45.3-6.2-55.9-10.4c-14.1-5.5-24.1-12-34.6-22.5c-10.5-10.5-17.1-20.6-22.5-34.6
		c-4.1-10.6-9-26.6-10.4-55.9c-1.4-31.8-1.8-41.3-1.8-121.7c0-80.4,0.3-89.9,1.8-121.7c1.3-29.4,6.2-45.3,10.4-55.9
		c5.5-14.1,12-24.1,22.5-34.6c10.5-10.5,20.6-17.1,34.6-22.5c10.6-4.1,26.6-9,55.9-10.4C168.3,11.4,177.8,11.1,258.2,11.1z"/>
	<path class="st0" d="M258.2,358.4c-55.4,0-100.4-44.9-100.4-100.4c0-55.4,44.9-100.4,100.4-100.4c55.4,0,100.4,44.9,100.4,100.4
		C358.6,313.4,313.7,358.4,258.2,358.4z M258.2,103.4c-85.4,0-154.6,69.2-154.6,154.6c0,85.4,69.2,154.6,154.6,154.6
		c85.4,0,154.6-69.2,154.6-154.6C412.9,172.6,343.6,103.4,258.2,103.4z"/>
	<path class="st0" d="M455.1,97.2c0,20-16.2,36.1-36.1,36.1c-20,0-36.1-16.2-36.1-36.1S399,61.1,419,61.1
		C438.9,61.1,455.1,77.3,455.1,97.2z"/>
</g>
</svg>
