<?xml version="1.0" encoding="utf-8"?>
<!-- Generator: Adobe Illustrator 22.0.1, SVG Export Plug-In . SVG Version: 6.00 Build 0)  -->
<svg version="1.1" id="Layer_1" xmlns:serif="http://www.serif.com/"
	 xmlns="http://www.w3.org/2000/svg" xmlns:xlink="http://www.w3.org/1999/xlink" x="0px" y="0px" viewBox="0 0 618.6 616.3"
	 style="enable-background:new 0 0 618.6 616.3;" xml:space="preserve">
<style type="text/css">
	.st0{fill:#FFFFFF;}
</style>
<path id="WhatsApp-Logo" class="st0" d="M447.5,368.5c-7.6-3.8-45-22.2-52-24.8c-7-2.5-12.1-3.8-17.1,3.8
	c-5.1,7.6-19.7,24.8-24.1,29.9c-4.4,5.1-8.9,5.7-16.5,1.9c-7.6-3.8-32.1-11.8-61.2-37.8c-22.6-20.2-37.9-45.1-42.4-52.7
	c-4.4-7.6-0.5-11.7,3.3-15.5c3.4-3.4,7.6-8.9,11.4-13.3c3.8-4.4,5.1-7.6,7.6-12.7c2.5-5.1,1.3-9.5-0.6-13.3
	c-1.9-3.8-17.1-41.3-23.5-56.5c-6.2-14.8-12.5-12.8-17.1-13.1c-4.4-0.2-9.5-0.3-14.6-0.3c-5.1,0-13.3,1.9-20.3,9.5
	c-7,7.6-26.6,26-26.6,63.5c0,37.5,27.3,73.7,31.1,78.8c3.8,5.1,53.7,82,130.1,115c18.2,7.8,32.3,12.5,43.4,16c18.2,5.8,34.8,5,48,3
	c14.6-2.2,45-18.4,51.4-36.2c6.3-17.8,6.3-33,4.4-36.2C460.2,374.2,455.1,372.3,447.5,368.5 M308.6,558.2h-0.1
	c-45.4,0-90-12.2-128.9-35.3l-9.2-5.5l-95.9,25.1l25.6-93.5l-6-9.6c-25.4-40.3-38.7-86.9-38.7-134.8C55.3,165.1,169,51.5,308.7,51.5
	c67.6,0,131.2,26.4,179.1,74.3c47.8,47.9,74.1,111.5,74.1,179.2C561.8,444.6,448.2,558.2,308.6,558.2 M524.1,89.4
	C466.6,31.8,390.1,0,308.6,0C140.6,0,3.9,136.7,3.8,304.7c0,53.7,14,106.1,40.7,152.3L1.3,614.9l161.5-42.4
	c44.5,24.3,94.6,37.1,145.6,37.1h0.1c167.9,0,304.6-136.7,304.7-304.7C613.3,223.5,581.6,147,524.1,89.4"/>
</svg>
