<svg xmlns="http://www.w3.org/2000/svg" viewBox="0 0 200.06 200.06"><defs><style>.cls-1{fill:#2d3e98;}</style></defs><title>blue-logo-v6wf</title><g id="Layer_6" data-name="Layer 6"><path class="cls-1" d="M200.06,156.08c-1.35,3.51-13.73-8.15-17.47-7.9-4.93.34-6.65-1.86-7-4.89a57.28,57.28,0,0,0-1.61-7c-.73-3.09-1.77-6.21-1.14-9.51a16,16,0,0,1,1.63-3.66c.47-1,.54-.82.93-1.65s.65-1.61,1-2.43a23.7,23.7,0,0,0,1.68-6.25,30.6,30.6,0,0,1,1.25-6c.4-1.15-1.07-1.57-2.11-1.74a47.23,47.23,0,0,0-10-.93,8.56,8.56,0,0,1-8.16-4.12A36.28,36.28,0,0,0,145,87.38,36.85,36.85,0,0,0,132.09,84c-2.86-.32-5.77-.19-8.63-.51-3.74-.43-6.81-2.42-9.58-4.81a70.29,70.29,0,0,0-6.21-5.37L92.39,58.75A11.61,11.61,0,0,1,90.6,56c-1.81-3-4.64-3.19-6.75-.54a22,22,0,0,1-4.6,4.39,12.41,12.41,0,0,0-4.65,6.32,34.28,34.28,0,0,0-.7,20.08c1.76,6.63,3.45,13.28,5.18,19.92a2.64,2.64,0,0,1-.84,3,3.26,3.26,0,0,1-3.5.49c-1.83-.79-3.71-1.5-5.47-2.39-3-1.5-6.25-2.08-9.24-3.47a2.3,2.3,0,0,0-2.8.18,2.79,2.79,0,0,0-.54,3.09c1.15,2.73,3.2,4.81,5.14,6.95a172.64,172.64,0,0,1,16.35,21.42,103.27,103.27,0,0,1,7,11.34c1.62,3.38,3.37,6.84,3.65,10.8.69,9.61,3,18.95,4.74,28.39,1,5.68-2,12.34-7.4,14.12h-3.5v.07H200.09V135.71Z"/></g></svg>