<svg xmlns="http://www.w3.org/2000/svg" viewBox="0 0 171.67 56.73"><defs><style>.cls-1{fill:#fff;}</style></defs><title>white-logo-jtrac</title><g id="jtrac-logo"><path class="cls-1" d="M105.73,56.71c1.89-8.15,3.49-15.5,5.36-22.79a40.43,40.43,0,0,1,3.1-7.82,11.69,11.69,0,0,1,10.66-7c6.11-.15,12.23,0,19.24,0-.85,4.81-1.64,9.28-2.45,13.74-1.26,6.86-2.41,13.73-3.91,20.53-.28,1.28-1.94,3.19-3,3.22C125.46,56.82,116.19,56.71,105.73,56.71Zm20-10.43a5.29,5.29,0,0,0,2.54-3.1A64.27,64.27,0,0,0,130.27,33c.15-1.09.59-2.7-.81-3.46A2.83,2.83,0,0,0,126.05,31a117.24,117.24,0,0,0-5.3,11C119.33,45.3,123,46.55,125.68,46.28Z"/><path class="cls-1" d="M39.58,19.1c-2.29,9.65-4.25,19-6.83,28.21A11.22,11.22,0,0,1,23,55.59c-7.36.64-14.82.17-22.23.17C-.5,47.45.65,46,8.27,46c11.81,0,13.6-1.56,15.57-13.19.3-1.8.94-3.53,1.31-5.32C27.2,17.29,26.88,19.31,39.58,19.1Z"/><path class="cls-1" d="M71.53,46.41c-.17,2.38-.25,4.16-.42,5.93-.3,3.14-1.79,4.69-5.22,4.49-5.31-.31-10.64-.19-16-.36-6.25-.19-9.39-3.14-8.87-9.35.57-6.91,1.91-13.77,3-20.63.4-2.42,1.13-4.79,1.76-7.38H57.32C56.24,24.73,55.41,29.92,54.24,35c-2,8.5.24,11.34,9.08,11.37C65.94,46.42,68.56,46.41,71.53,46.41Z"/><path class="cls-1" d="M109.14,18.71c-.72,2.2-1.27,4-1.27,4-1.51,3.37-2.53,6.88-7.68,6.6-4.51-.24-7.58,3.73-8.94,9.83-1.15,5.17-2.37,10.34-3.58,15.5a18.08,18.08,0,0,1-.72,2h-11c2.37-10.84,2.84-21.76,8.3-31.25A13,13,0,0,1,92,19.83C97.22,18.74,102.77,19,109.14,18.71Z"/><path class="cls-1" d="M171.67,20c-.66,3.05-1.31,6.08-2,9.28-5.9.89-12.29,2.2-13.25,9.06-.86,6.09,5.65,6.79,9.61,9.13-.5,3-1,5.91-1.46,8.83-5.27,1.52-11.33-.59-15.06-5.65-4.74-6.44-4.5-13.34-.92-20.18C152.56,22.82,161.64,18.75,171.67,20Z"/><path class="cls-1" d="M42.56,2.71c-.89,3.74-1.59,6.73-2.34,9.86H8.76C9,10.26,8.72,8,9.49,6.2,10.1,4.76,12,2.9,13.3,2.86,22.72,2.57,32.16,2.71,42.56,2.71Z"/><path class="cls-1" d="M46.79,12.8C47.7,9,48.67,5.63,49.37,2.68H79.56C80.31,11,79.23,12.8,71.7,12.8Z"/></g></svg>