<svg xmlns="http://www.w3.org/2000/svg" viewBox="0 0 200.06 200.06"><defs><style>.cls-1{fill:#fff;}</style></defs><title>white-logo-v6wf</title><g id="Layer_6" data-name="Layer 6"><path class="cls-1" d="M197.74,140.18c-1.83,4.77-18.68-11.1-23.78-10.75-6.7.45-9.06-2.54-9.5-6.67-.35-3.26-1.44-6.36-2.19-9.52-1-4.2-2.41-8.46-1.55-12.94.36-1.86,1.38-3.2,2.22-5,.64-1.36.73-1.11,1.27-2.24s.87-2.19,1.35-3.31a31.75,31.75,0,0,0,2.29-8.5,41.64,41.64,0,0,1,1.7-8.13c.55-1.57-1.46-2.14-2.86-2.37a64.93,64.93,0,0,0-13.64-1.27,11.67,11.67,0,0,1-11.11-5.61,49.39,49.39,0,0,0-19.17-17.22c-5.56-2.81-11.49-3.93-17.54-4.59-3.89-.43-7.86-.26-11.75-.7-5.08-.58-9.26-3.29-13-6.55-2.82-2.43-5.36-5.2-8.46-7.31L51.19,7.7A16,16,0,0,1,48.75,4c-2.46-4-6.31-4.34-9.18-.74a30.08,30.08,0,0,1-6.26,6A16.76,16.76,0,0,0,27,17.8a46.67,46.67,0,0,0-1,27.34c2.41,9,4.7,18.07,7.06,27.1a3.6,3.6,0,0,1-1.15,4,4.4,4.4,0,0,1-4.76.67c-2.49-1.07-5.05-2-7.44-3.25-4.05-2-8.52-2.83-12.59-4.72-1.29-.61-2.66-.88-3.8.24a3.83,3.83,0,0,0-.75,4.2C4.17,77.14,7,80,9.59,82.88A233.93,233.93,0,0,1,31.84,112c3.33,5.07,6.93,10,9.53,15.44,2.22,4.59,4.59,9.31,5,14.7.94,13.07,4.11,25.79,6.45,38.64,1.41,7.73-2.68,16.8-10.07,19.22H38v.09H197.79V112.45Z"/></g></svg>