<svg xmlns="http://www.w3.org/2000/svg" viewBox="0 0 253.86 34.5"><defs><style>.cls-1{fill:#fff;}</style></defs><title>white-logo-integral</title><g id="Layer_4" data-name="Layer 4"><path class="cls-1" d="M155.16,0c4.81,2.3,6.75,6.18,6.42,11.39-.14,2.12,0,4.26-.18,6.37-.32,3.28-1.86,6-4.93,7.31-2.61,1.12-1.95,2.09-.42,3.52,1.32,1.23,2.54,2.57,3.75,3.91s.88,2.1-.92,2.11c-2.55,0-5.11.1-7.65-.12s-3.32-2.74-4.9-4.23c-1.35-1.25-2.08-4.15-3.94-3.57s-.55,3.22-.66,4.93c-.14,2.35-1.22,3-3.44,3.05-6.14.08-6.14.16-6.14-6l0-28.69ZM146.4,17c1.16,0,2.32,0,3.48,0,2.2,0,2.24-1.67,2.08-3.15-.19-1.69,1.06-4.21-1.8-4.65a39.63,39.63,0,0,0-6.63-.06c-1,0-1.47.6-1.74,1.54C140.45,15.34,141.65,17,146.4,17Z"/><path class="cls-1" d="M130.26,0c0,2,0,4,0,6.06s-.87,3.05-3,3c-4.46-.08-8.94.16-13.39-.07-3.17-.17-4.1,1.05-3.9,4,.22,3.28.09,6.59,0,9.89,0,1.74.71,2.54,2.47,2.49,2-.05,4,0,6.06,0,1,0,1.9-.33,2-1.57s-.57-1.93-1.85-2.08-3.09.3-3.48-1.49a14.43,14.43,0,0,1,.09-6.94,1.7,1.7,0,0,1,1.81-1.05c3.51,0,7,0,10.52,0,1.58,0,2.23.92,2.22,2.47,0,3.94.12,7.88-.07,11.8a8.31,8.31,0,0,1-8,8,117.13,117.13,0,0,1-12.43,0,8.56,8.56,0,0,1-8.46-8.68c-.16-5.74-.12-11.48,0-17.22.08-4.34,2.63-7,6.45-8.65Z"/><path class="cls-1" d="M188.37,0c4.53,2.25,6.24,5.88,6,10.91-.26,6.68-.17,13.38,0,20.07.06,2.76-.86,4-3.66,3.66a11.08,11.08,0,0,0-2.23,0c-2.46.25-3.49-.82-3.38-3.29.23-5.62-.24-5.1-5.32-5.12-2.87,0-5.74,0-8.61,0-2.16-1.06-4.53-1.79-5.92-4-2.09-4.88-1.38-10-1.06-15,.22-3.49,2.93-5.46,5.64-7.22Zm-9.45,17c6.44,0,6.82-.4,6.21-5.75C185,9.68,184.22,9,182.7,9c-2.33,0-4.66,0-7,0-1.08,0-2.05.09-2.45,1.46C172,15,173.38,17,178,17Z"/><path class="cls-1" d="M26.18,0C31,2.29,32.86,6.17,32.61,11.38c-.17,3.6,0,7.22,0,10.83-.07,2.26.69,3.44,3.1,3.23,1-.09,1.91,0,2.87,0,4.66,0,4.86.22,4.83,4.79,0,4.24-.18,4.4-4.55,4.41-1.91,0-3.83,0-5.74,0-6.16-.09-9.66-3.35-10-9.59-.2-3.92,0-7.86-.09-11.79,0-1.12.32-2.32-.58-3.56-.94.91-.61,2-.62,3,0,6-.11,12.11,0,18.16C21.9,33.66,21,35,18,34.65a19.61,19.61,0,0,0-2.87,0c-1.69,0-2.56-.69-2.54-2.45Q12.7,16.08,12.77,0Z"/><path class="cls-1" d="M206.88,0c.08,7.32.24,14.64.17,22,0,2.59.78,3.73,3.45,3.49a34.73,34.73,0,0,1,5.1,0c1.39.09,3.38-.66,3.89,1.2a12.2,12.2,0,0,1-.16,7.2c-.25.75-1.22.75-2,.75-5.62,0-11.25,0-16.88,0-2.52,0-2.6-1.61-2.59-3.42L198,0Z"/><path class="cls-1" d="M70.88,0c0,1.91,0,3.83.09,5.73.17,2.52-1,3.33-3.39,3.34-4.36,0-4.37.11-4.38,4.45,0,5.63-.12,11.26,0,16.89.06,3-.81,4.72-4.15,4.23a10.92,10.92,0,0,0-1.28,0c-4.12,0-4.2-.08-4.2-4.36q0-15.13.06-30.27Z"/><path class="cls-1" d="M8.94,0c0,10.5,0,21,.12,31.5,0,2.33-.9,3.14-3.21,3.17-6,.1-6,.18-6-5.72Q-.11,14.48,0,0Z"/><path class="cls-1" d="M99,0c.33,11.08.94,8.75-8.29,9C89,9.07,87.29,9,85.6,9c-1.44,0-2.77,0-3.13,1.88-.23,1.19-1.31,1.26-2.27,1.29-1.59,0-3.18,0-4.77,0-1.89.06-2.7-.86-2.68-2.7,0-3.17,0-6.35,0-9.53Z"/><path class="cls-1" d="M42.78,0c1.08,3,.49,6.11.56,9.18.1,4.14,0,8.29,0,12.44,0,2.34-.79,3.43-3.35,3.46-6.21.08-6.21.19-6.2-5.93q0-9.58,0-19.15Z"/><path class="cls-1" d="M253.5,21.07c-2.75,7.31-7.5,12.24-15.6,13.3-9.21,1.19-18.67-5.71-19.15-14C224,30.11,232.06,33.68,240.52,30a14.9,14.9,0,0,0,7.95-18.41c-2.88-8.6-10.35-11.36-23-8.33C227.5,1.19,232.3,0,232.3,0a17.27,17.27,0,0,1,3.82-.54,18.74,18.74,0,0,1,4,.56A19,19,0,0,1,253.5,13.41a24.94,24.94,0,0,1,.36,3.56A35.39,35.39,0,0,1,253.5,21.07Z"/><path class="cls-1" d="M53,0c.07,1.69,0,3.39.24,5.07.35,3.06-.94,4-4,4s-4.32-1-4-4c.16-1.68.06-3.39.08-5.08Z"/><path class="cls-1" d="M85.57,34.63c-3.29,0-6.59-.06-9.88,0-2,0-3-.73-2.94-2.78,0-5.53,0-11.06,0-16.58,0-1.89.89-2.65,2.75-2.64,6.16,0,12.33,0,18.49,0,1.91,0,2.52.92,2.63,2.75.37,6.37.35,6.44-6,6.44-2,0-4,0-6,0-1.08,0-1.88.36-2,1.6s.69,1.91,2,1.92c3.72,0,7.44.12,11.16,0,2.49-.08,3.56.9,3.32,3.37a8.71,8.71,0,0,0,0,1.91c.38,3.06-.92,4.2-4,4S88.76,34.63,85.57,34.63Z"/><path class="cls-1" d="M234.26,29.45c-7.79,0-14-5.81-14-13.12,0-7.16,6.51-13.15,14.14-13.07a13.44,13.44,0,0,1,13.06,13A13.3,13.3,0,0,1,234.26,29.45Zm5.52-4.78c2.07-.46,4.32-1.15,4.71-4,.35-2.52-.32-4.33-3.3-4.74-2.33-.32-.86-1.79-.63-2.88.18-.89,1.62-2-.05-2.63a2.21,2.21,0,0,0-2.93,1.27c-1.13,2.5-2.45,5-2.9,7.71C234.17,22.44,236.31,24.75,239.78,24.67Zm-3.27-13.61-.76-.35c-1.8,1.76-1.53,4.73-3.41,6.65-1.5-1.81-1.76-3.87-2.61-5.66-.76-1.59-2.13-1.57-3.53-1.33-.89.15-.8.88-.58,1.51a50.56,50.56,0,0,0,5.79,11.55C233.24,19,234.87,15,236.51,11.06Z"/><path class="cls-1" d="M239.8,17c2.33,0,2.42,5.79,0,5.79S237.47,17,239.8,17Z"/><path class="cls-1" d="M165.27,22.24c1.39,2.2,3.76,2.93,5.92,4,3.47,1.53,1.94,4.56,1.76,6.9s-2.48,1.44-3.91,1.47c-5,.12-5.06.07-5.06-5,0-1.9,0-3.8,0-5.7C164,23.05,164,22.14,165.27,22.24Z"/></g></svg>