<svg xmlns="http://www.w3.org/2000/svg" viewBox="0 0 200.06 200.06"><defs><style>.cls-1{fill:#fff;}</style></defs><title>white-logo-v6</title><g id="Layer_5" data-name="Layer 5"><path class="cls-1" d="M92.39,58.75A11.61,11.61,0,0,1,90.6,56c-1.81-3-4.64-3.19-6.75-.54a21.72,21.72,0,0,1-4.59,4.39,12.3,12.3,0,0,0-4.65,6.32,34.2,34.2,0,0,0-.71,20.08c1.77,6.63,3.45,13.28,5.19,19.92a2.64,2.64,0,0,1-.85,3,3.24,3.24,0,0,1-3.49.49c-1.83-.79-3.72-1.5-5.47-2.39-3-1.5-6.26-2.08-9.25-3.47a2.3,2.3,0,0,0-2.8.18,2.83,2.83,0,0,0-.54,3.09c1.16,2.73,3.2,4.81,5.14,6.95a171.68,171.68,0,0,1,16.35,21.42,101.77,101.77,0,0,1,7,11.34c1.63,3.38,3.37,6.84,3.66,10.8.68,9.61,3,18.95,4.74,28.39a11,11,0,0,1-7.36,12.72c-3,1-5.88,0-8.71-.78a111,111,0,0,1-25.17-9.63,100.64,100.64,0,0,1-37.39-35A96.8,96.8,0,0,1,2.93,125,111.56,111.56,0,0,1,.33,107,89,89,0,0,1,3,75.58C14.09,36,39.71,11.33,79.89,2a87,87,0,0,1,23.75-2c14.2.67,27.86,3.56,40.71,10,24.75,12.37,41.43,31.77,50.59,57.69a88.38,88.38,0,0,1,5.12,29.35c0,16.49-2.79,30.32-8.64,43.53-.19.43-.37.88-.54,1.32a9.62,9.62,0,0,1-8.29,6.24c-4.92.34-6.65-1.86-7-4.89a57.24,57.24,0,0,0-1.6-7c-.73-3.09-1.77-6.21-1.14-9.51a15.21,15.21,0,0,1,1.63-3.66c.47-1,.53-.82.93-1.65s.64-1.61,1-2.43a23.32,23.32,0,0,0,1.68-6.25,31.35,31.35,0,0,1,1.25-6c.4-1.15-1.07-1.57-2.1-1.74a47.39,47.39,0,0,0-10-.93,8.56,8.56,0,0,1-8.16-4.12A36.21,36.21,0,0,0,145,87.38,36.8,36.8,0,0,0,132.1,84c-2.87-.32-5.78-.19-8.63-.51-3.74-.43-6.81-2.42-9.58-4.81a70.41,70.41,0,0,0-6.22-5.37"/></g></svg>