<svg xmlns="http://www.w3.org/2000/svg" viewBox="0 0 200.06 200.06"><defs><style>.cls-1{fill:#fff;}</style></defs><title>white-logo-v5</title><g id="Layer_2" data-name="Layer 2"><path class="cls-1" d="M162.44,114.87A62.7,62.7,0,0,0,42.19,79.79C85.94,85.51,126.12,97.22,162.44,114.87Z"/><path class="cls-1" d="M39.64,89.9a62.71,62.71,0,0,0,119.52,34.89C123.19,107.14,83.26,95.48,39.64,89.9Z"/><path class="cls-1" d="M170.5,130.68A75.47,75.47,0,0,1,26.93,88.5C19.06,87.73,11.1,87.1,3,86.72a99.42,99.42,0,0,0,188.28,56.16C184.53,138.55,177.58,134.52,170.5,130.68Z"/><path class="cls-1" d="M29.23,78.4A75.46,75.46,0,0,1,174,120.91c7.22,3.87,14.32,7.94,21.22,12.31A99.43,99.43,0,1,0,4.91,76.54C13.14,77,21.23,77.59,29.23,78.4Z"/></g></svg>