<svg id="Layer_1" data-name="Layer 1" xmlns="http://www.w3.org/2000/svg" viewBox="0 0 257.5 36.33"><defs><style>.cls-1{fill:#fff;}</style></defs><title>JSi_Artboard 1</title><path class="cls-1" d="M157.19.56c4.8,2.3,6.75,6.18,6.41,11.4-.14,2.11,0,4.25-.18,6.36-.31,3.28-1.85,6-4.92,7.31-2.61,1.12-2,2.09-.42,3.52,1.31,1.23,2.54,2.57,3.74,3.91s.88,2.1-.92,2.11c-2.55,0-5.11.11-7.64-.11s-3.32-2.75-4.91-4.23c-1.34-1.26-2.07-4.16-3.93-3.58s-.56,3.22-.66,4.93c-.15,2.36-1.22,3-3.44,3-6.14.08-6.15.16-6.14-6V.49Zm-8.77,17h3.49c2.19,0,2.23-1.67,2.07-3.15-.18-1.69,1.07-4.2-1.79-4.65a38.75,38.75,0,0,0-6.64,0c-1,0-1.46.6-1.73,1.53C142.47,15.9,143.68,17.59,148.42,17.56Z"/><path class="cls-1" d="M132.29.56V6.62c0,2.06-.86,3.06-3,3-4.46-.09-8.93.15-13.39-.08-3.16-.17-4.1,1-3.9,4,.22,3.28.1,6.58,0,9.88,0,1.74.71,2.54,2.46,2.49,2-.05,4,0,6.06,0,1.06,0,1.9-.33,2-1.57s-.56-1.93-1.85-2.07-3.09.29-3.48-1.49a14.54,14.54,0,0,1,.09-6.94c.23-.83,1.07-1,1.82-1.05q5.25-.07,10.52,0c1.58,0,2.23.93,2.21,2.48,0,3.93.12,7.87-.07,11.79a8.33,8.33,0,0,1-8,8,117.32,117.32,0,0,1-12.44,0,8.55,8.55,0,0,1-8.45-8.65v0c-.16-5.73-.12-11.48,0-17.22.08-4.34,2.63-7,6.45-8.65Z"/><path class="cls-1" d="M190.39.56c4.53,2.25,6.24,5.89,6,10.91-.26,6.68-.16,13.38,0,20.07.06,2.76-.86,4-3.66,3.67a9.24,9.24,0,0,0-2.23,0c-2.46.24-3.49-.82-3.39-3.3.23-5.62-.24-5.1-5.32-5.12h-8.6c-2.16-1.05-4.54-1.79-5.92-4-2.1-4.88-1.38-10-1.07-15,.22-3.49,2.93-5.45,5.64-7.22Zm-9.45,17c6.45,0,6.82-.39,6.21-5.75-.18-1.6-.9-2.25-2.43-2.24h-7c-1.08,0-2.06.09-2.45,1.47-1.3,4.49.12,6.51,4.7,6.51Z"/><path class="cls-1" d="M28.2.56c4.8,2.29,6.69,6.17,6.44,11.38-.18,3.61,0,7.23-.06,10.83-.06,2.26.69,3.44,3.11,3.23.94-.08,1.91,0,2.86,0,4.66,0,4.87.22,4.84,4.79,0,4.24-.19,4.4-4.56,4.42H35.1c-6.16-.09-9.66-3.35-10-9.59-.2-3.92,0-7.85-.09-11.78,0-1.13.31-2.33-.58-3.56-.94.9-.62,2-.62,3,0,6-.12,12.11,0,18.16.07,2.85-.85,4.21-3.83,3.84a22.74,22.74,0,0,0-2.86,0c-1.69,0-2.56-.69-2.55-2.45q.11-16.08.19-32.17Z"/><path class="cls-1" d="M208.91.56c.07,7.32.24,14.64.17,22,0,2.6.77,3.74,3.45,3.5a33.26,33.26,0,0,1,5.09,0c1.39.09,3.39-.66,3.89,1.2a12.27,12.27,0,0,1-.15,7.2c-.26.76-1.23.75-2,.76H202.48c-2.52,0-2.6-1.62-2.6-3.42L200,.56Z"/><path class="cls-1" d="M72.9.56c0,1.91,0,3.83.1,5.74.17,2.51-1,3.32-3.4,3.33-4.36,0-4.36.12-4.38,4.45,0,5.63-.12,11.26,0,16.89.07,3-.81,4.73-4.15,4.23a9,9,0,0,0-1.27,0c-4.13,0-4.21-.09-4.2-4.37V.56Z"/><path class="cls-1" d="M11,.56c0,10.5,0,21,.12,31.5,0,2.33-.9,3.14-3.21,3.18-6,.09-6,.18-6-5.73,0-9.65.12-19.3.17-28.95Z"/><path class="cls-1" d="M101,.56c.33,11.08.94,8.75-8.29,9-1.69,0-3.39,0-5.09,0-1.43,0-2.77,0-3.13,1.89-.23,1.18-1.3,1.26-2.27,1.28H77.45c-1.88.06-2.69-.85-2.67-2.69V.5Z"/><path class="cls-1" d="M44.81.56c1.08,3,.48,6.12.55,9.18.1,4.14,0,8.29,0,12.44,0,2.34-.79,3.43-3.34,3.47-6.21.08-6.21.18-6.21-5.94V.56Z"/><path class="cls-1" d="M255.52,21.63c-2.75,7.31-7.5,12.25-15.6,13.3-9.21,1.2-18.67-5.71-19.15-14,5.29,9.77,13.31,13.34,21.77,9.68a14.9,14.9,0,0,0,8-18.42c-2.88-8.6-10.34-11.35-23-8.33,2-2.08,6.84-3.29,6.84-3.29A17.19,17.19,0,0,1,238.15,0a18.63,18.63,0,0,1,4,.56A19,19,0,0,1,255.52,14a25.13,25.13,0,0,1,.37,3.56A34.77,34.77,0,0,1,255.52,21.63Z"/><path class="cls-1" d="M55,.56c.08,1.69,0,3.39.24,5.07.35,3.06-.93,4-4,4s-4.32-1-4-4c.17-1.68.06-3.38.08-5.08Z"/><path class="cls-1" d="M87.6,35.19c-3.3,0-6.59-.06-9.89,0-2,0-2.95-.73-2.94-2.78V15.83c0-1.88.9-2.65,2.75-2.64q9.26.06,18.5,0c1.91,0,2.52.93,2.62,2.75.37,6.37.36,6.44-6,6.44H86.58c-1.08,0-1.88.36-1.94,1.6s.69,1.91,2,1.92c3.72,0,7.44.12,11.15,0,2.49-.08,3.56.9,3.32,3.37a8.71,8.71,0,0,0,0,1.91c.39,3.06-.91,4.21-4,4S90.79,35.2,87.6,35.19Z"/><path class="cls-1" d="M236.29,30c-7.8,0-14-5.81-14-13.12,0-7.15,6.5-13.15,14.13-13.07a13.45,13.45,0,0,1,13.06,13A13.29,13.29,0,0,1,236.29,30Zm5.52-4.78c2.06-.46,4.31-1.15,4.71-4,.34-2.52-.33-4.33-3.3-4.74-2.33-.32-.87-1.79-.64-2.88.19-.88,1.63-2-.05-2.63a2.21,2.21,0,0,0-2.89,1.19l0,.08c-1.13,2.51-2.45,5-2.91,7.71-.5,3.05,1.64,5.36,5.11,5.28Zm-3.28-13.61-.76-.35C236,13,236.24,16,234.36,17.92c-1.5-1.8-1.76-3.87-2.61-5.66-.75-1.59-2.13-1.57-3.53-1.33-.88.15-.79.88-.58,1.51A51.06,51.06,0,0,0,233.43,24Z"/><path class="cls-1" d="M241.82,17.61c2.34,0,2.42,5.79,0,5.79S239.49,17.61,241.82,17.61Z"/><path class="cls-1" d="M167.3,22.8c1.38,2.2,3.76,2.94,5.92,4,3.47,1.54,1.93,4.57,1.75,6.91s-2.47,1.43-3.91,1.46c-5.05.12-5.05.07-5.06-5V24.48C166,23.61,166,22.7,167.3,22.8Z"/></svg>