<svg id="Layer_1" data-name="Layer 1" xmlns="http://www.w3.org/2000/svg" viewBox="0 0 201.88 198.81"><defs><style>.cls-1{fill:#2d3e98;}</style></defs><title>JSi_Artboard 2</title><path class="cls-1" d="M92.42,58.8A11.67,11.67,0,0,1,90.63,56c-1.81-2.95-4.64-3.18-6.75-.54a21.77,21.77,0,0,1-4.6,4.39,12.4,12.4,0,0,0-4.65,6.33,34.28,34.28,0,0,0-.7,20.08c1.77,6.62,3.45,13.27,5.19,19.91a2.64,2.64,0,0,1-.85,3,3.24,3.24,0,0,1-3.5.49c-1.82-.79-3.71-1.5-5.47-2.39-3-1.5-6.25-2.07-9.24-3.47a2.31,2.31,0,0,0-2.8.18,2.81,2.81,0,0,0-.54,3.09c1.16,2.73,3.2,4.82,5.14,7a173.39,173.39,0,0,1,16.35,21.42,103.4,103.4,0,0,1,7,11.35c1.62,3.37,3.37,6.84,3.65,10.79.69,9.61,3,18.95,4.74,28.4a10.94,10.94,0,0,1-7.36,12.71c-3,1-5.87,0-8.7-.77a111.91,111.91,0,0,1-25.17-9.63,100.75,100.75,0,0,1-37.39-35A96.68,96.68,0,0,1,3,125a110.45,110.45,0,0,1-2.6-17.91A88.71,88.71,0,0,1,3,75.63C14.11,36,39.74,11.38,79.91,2.09a87,87,0,0,1,23.75-2c14.21.67,27.87,3.56,40.72,10C169.13,22.46,185.8,41.86,195,67.78a88.42,88.42,0,0,1,5.12,29.35c0,16.49-2.79,30.32-8.64,43.53-.19.44-.37.88-.55,1.33a9.63,9.63,0,0,1-8.28,6.24c-4.92.33-6.65-1.87-7-4.9a57.67,57.67,0,0,0-1.6-7c-.74-3.09-1.78-6.21-1.14-9.51a15.38,15.38,0,0,1,1.63-3.66c.47-1,.53-.82.92-1.65s.65-1.61,1-2.43a23.35,23.35,0,0,0,1.68-6.24,31.45,31.45,0,0,1,1.25-6c.4-1.15-1.07-1.57-2.1-1.74a48.05,48.05,0,0,0-10-.93,8.55,8.55,0,0,1-8.16-4.12A36.21,36.21,0,0,0,145,87.42,36.79,36.79,0,0,0,132.12,84c-2.86-.31-5.77-.18-8.63-.51-3.73-.43-6.8-2.42-9.58-4.81a70.51,70.51,0,0,0-6.21-5.37"/></svg>